<svg width="146" height="24" viewBox="0 0 146 24" fill="none" xmlns="http://www.w3.org/2000/svg">
<path d="M42.956 22V7.83198L37.104 18.584H35.256L29.376 7.83198V22H26.24V2.11998H29.6L36.18 14.272L42.76 2.11998H46.12V22H42.956Z" fill="#294539"/>
<path d="M50.6033 22V2.11998H53.7393V22H50.6033Z" fill="#294539"/>
<path d="M58.2322 22V2.11998H71.4762V4.89198H61.3682V10.828H69.8242V13.432H61.3682V22H58.2322Z" fill="#294539"/>
<path d="M82.3789 22.14C80.9416 22.14 79.6442 21.86 78.4869 21.3C77.3296 20.74 76.3309 19.984 75.4909 19.032C74.6509 18.0613 73.9976 16.9786 73.5309 15.784C73.0829 14.5706 72.8589 13.3293 72.8589 12.06C72.8589 10.7346 73.1016 9.47465 73.5869 8.27998C74.0722 7.06665 74.7442 5.99331 75.6029 5.05998C76.4616 4.10798 77.4696 3.36131 78.6269 2.81998C79.8029 2.25998 81.0722 1.97998 82.4349 1.97998C83.8536 1.97998 85.1416 2.26931 86.2989 2.84798C87.4749 3.42665 88.4736 4.20131 89.2949 5.17198C90.1349 6.14265 90.7789 7.22531 91.2269 8.41998C91.6936 9.61465 91.9269 10.8373 91.9269 12.088C91.9269 13.4133 91.6842 14.6826 91.1989 15.896C90.7322 17.0906 90.0696 18.164 89.2109 19.116C88.3522 20.0493 87.3349 20.7866 86.1589 21.328C85.0016 21.8693 83.7416 22.14 82.3789 22.14ZM76.0509 12.06C76.0509 12.9933 76.2002 13.8986 76.4989 14.776C76.7976 15.6533 77.2176 16.4373 77.7589 17.128C78.3189 17.8 78.9909 18.332 79.7749 18.724C80.5589 19.116 81.4362 19.312 82.4069 19.312C83.4149 19.312 84.3109 19.1066 85.0949 18.696C85.8789 18.2853 86.5322 17.7346 87.0549 17.044C87.5962 16.3346 88.0069 15.5506 88.2869 14.692C88.5669 13.8146 88.7069 12.9373 88.7069 12.06C88.7069 11.1266 88.5576 10.2306 88.2589 9.37198C87.9789 8.49465 87.5589 7.71998 86.9989 7.04798C86.4389 6.35731 85.7669 5.81598 84.9829 5.42398C84.2176 5.03198 83.3589 4.83598 82.4069 4.83598C81.3989 4.83598 80.5029 5.04131 79.7189 5.45198C78.9349 5.86265 78.2722 6.41331 77.7309 7.10398C77.1896 7.79465 76.7696 8.56931 76.4709 9.42798C76.1909 10.2866 76.0509 11.164 76.0509 12.06Z" fill="#294539"/>
<path d="M95.1736 22V2.11998H103.826C104.722 2.11998 105.543 2.30665 106.29 2.67998C107.036 3.05331 107.68 3.54798 108.222 4.16398C108.782 4.77998 109.211 5.47065 109.51 6.23598C109.827 7.00131 109.986 7.78531 109.986 8.58798C109.986 9.46531 109.827 10.3053 109.51 11.108C109.192 11.9106 108.735 12.6013 108.138 13.18C107.559 13.7586 106.878 14.1786 106.094 14.44L110.77 22H107.242L102.93 15.084H98.3096V22H95.1736ZM98.3096 12.312H103.798C104.376 12.312 104.89 12.144 105.338 11.808C105.786 11.472 106.14 11.024 106.402 10.464C106.663 9.88531 106.794 9.25998 106.794 8.58798C106.794 7.89731 106.644 7.28131 106.346 6.73998C106.047 6.17998 105.655 5.73198 105.17 5.39598C104.703 5.05998 104.19 4.89198 103.63 4.89198H98.3096V12.312Z" fill="#294539"/>
<path d="M128.082 4.89198H121.474V22H118.31V4.89198H111.674V2.11998H128.082V4.89198Z" fill="#294539"/>
<path d="M144.384 19.228V22H130.748V2.11998H144.132V4.89198H133.884V10.548H142.76V13.152H133.884V19.228H144.384Z" fill="#294539"/>
<path d="M2 2.49998C2 2.22384 2.22386 1.99998 2.5 1.99998H8.0765C8.38547 1.99998 8.62049 2.27742 8.5697 2.58218L5.403 21.5822C5.36282 21.8233 5.15422 22 4.9098 22H2.5C2.22386 22 2 21.7761 2 21.5V2.49998Z" fill="#59A686"/>
<path d="M15.3324 2.49998C15.3324 2.22384 15.5563 1.99998 15.8324 1.99998H21.4089C21.7179 1.99998 21.9529 2.27742 21.9021 2.58218L18.7354 21.5822C18.6952 21.8233 18.4866 22 18.2422 22H15.8324C15.5563 22 15.3324 21.7761 15.3324 21.5V2.49998Z" fill="#59A686"/>
<path d="M13.6676 21.5C13.6676 21.7761 13.4437 22 13.1676 22H7.59109C7.28212 22 7.0471 21.7225 7.0979 21.4178L10.2646 2.41778C10.3048 2.17669 10.5134 1.99998 10.7578 1.99998H13.1676C13.4437 1.99998 13.6676 2.22384 13.6676 2.49998V21.5Z" fill="#59A686"/>
</svg>
