<svg width="70" height="70" viewBox="0 0 70 70" fill="none" xmlns="http://www.w3.org/2000/svg">
<path d="M28.4217 50.9939H59.7702C60.3374 50.992 60.7966 50.5327 60.7986 49.9655V15.905C60.7986 13.0675 58.4788 10.7476 55.6412 10.7476H14.3587C11.5212 10.7476 9.20129 13.0675 9.20129 15.905V25.7095L28.4217 50.9939Z" fill="#3A4D5C"/>
<path d="M32.4213 46.8648H52.5407C54.8083 46.8648 56.6697 45.0111 56.6697 42.7435V19.0055C56.6697 16.7379 54.8083 14.8765 52.5407 14.8765H17.4517C15.1841 14.8765 13.3303 16.7379 13.3303 19.0055V25.717L32.4213 46.8648Z" fill="#A7E3FA"/>
<path d="M4.03603 24.6777C3.90051 24.6783 3.76641 24.7055 3.64141 24.7578C3.5164 24.8102 3.40293 24.8867 3.30748 24.9829C3.21202 25.0791 3.13644 25.1931 3.08507 25.3185C3.0337 25.444 3.00753 25.5783 3.00806 25.7138C3.0086 25.9864 3.11702 26.2478 3.30963 26.4408C3.50223 26.6338 3.76338 26.7427 4.03603 26.7437H5.07206V33.9657H4.03603C3.90051 33.9662 3.76641 33.9934 3.64141 34.0458C3.5164 34.0981 3.40293 34.1747 3.30748 34.2709C3.21202 34.3671 3.13644 34.4811 3.08507 34.6066C3.0337 34.732 3.00753 34.8662 3.00806 35.0017C3.00913 35.2741 3.11778 35.5349 3.31033 35.7275C3.50288 35.92 3.76372 36.0286 4.03603 36.0297H6.10002H19.9877H26.2361H26.746C29.5836 36.0297 31.904 33.7093 31.904 30.8718V29.8438C31.904 27.0063 29.5836 24.6777 26.746 24.6777H6.10002H4.03603Z" fill="#DC1C4B"/>
<path d="M5.07202 26.7437H26.746C28.4681 26.7437 29.8379 28.1216 29.838 29.8437V30.8717C29.8379 32.5938 28.4681 33.9656 26.746 33.9656C19.5213 33.9656 12.2967 33.9656 5.07202 33.9656V26.7437Z" fill="#FAFCBD"/>
<path d="M5.07202 30.4404V33.9658C12.2967 33.9658 19.5213 33.9658 26.746 33.9658C28.4681 33.9658 29.8379 32.5939 29.838 30.8718V30.4404H5.07202Z" fill="#E8CF76"/>
<path d="M5.07202 29.3257V31.3897H10.2602C10.3964 31.3903 10.5314 31.3637 10.6573 31.3119C10.7833 31.26 10.8977 31.1837 10.994 31.0874C11.0903 30.9911 11.1666 30.8767 11.2185 30.7508C11.2704 30.6248 11.2968 30.4899 11.2963 30.3537C11.2957 30.2181 11.2685 30.0841 11.2162 29.9591C11.1638 29.8341 11.0874 29.7205 10.9911 29.6251C10.8949 29.5296 10.7809 29.4541 10.6555 29.4027C10.53 29.3513 10.3958 29.3252 10.2602 29.3257H5.07202ZM14.3278 29.3257C14.1922 29.3252 14.0579 29.3513 13.9325 29.4027C13.8071 29.4541 13.693 29.5296 13.5968 29.6251C13.5006 29.7205 13.4242 29.8341 13.3718 29.9591C13.3195 30.0841 13.2923 30.2181 13.2917 30.3537C13.2912 30.4899 13.3176 30.6248 13.3695 30.7508C13.4214 30.8767 13.4977 30.9911 13.594 31.0874C13.6903 31.1837 13.8047 31.26 13.9306 31.3119C14.0566 31.3637 14.1915 31.3903 14.3278 31.3897H20.034C20.1702 31.3903 20.3051 31.3637 20.4311 31.3119C20.557 31.26 20.6714 31.1837 20.7678 31.0874C20.8641 30.9911 20.9404 30.8767 20.9922 30.7508C21.0441 30.6248 21.0705 30.4899 21.07 30.3537C21.0695 30.2181 21.0423 30.0841 20.9899 29.9591C20.9376 29.8341 20.8611 29.7205 20.7649 29.6251C20.6687 29.5296 20.5546 29.4541 20.4292 29.4027C20.3038 29.3513 20.1695 29.3252 20.034 29.3257H14.3278Z" fill="#CCA359"/>
<path d="M10.2298 33.9648C8.53212 33.9648 7.13679 35.3677 7.13684 37.0654V38.6119C7.13684 40.3095 8.53213 41.7048 10.2298 41.7048H31.9033C33.6009 41.7048 34.9962 40.3095 34.9962 38.6119V37.0654C34.9963 35.3677 33.6009 33.9648 31.9033 33.9648H10.2298Z" fill="#50B86B"/>
<path d="M5.58998 39.648C5.02002 39.6457 4.55619 40.1059 4.55396 40.6759C4.55507 41.2467 5.01923 41.7081 5.58998 41.7059H6.61795V48.9338H5.58998C5.01923 48.9316 4.55507 49.3931 4.55396 49.9638C4.55171 50.5369 5.01687 51.0021 5.58998 50.9999C13.1573 50.9999 20.7246 50.9999 28.2919 50.9999C31.1295 50.9999 33.4499 48.6714 33.4499 45.8338V44.8059C33.4499 41.9683 31.1295 39.648 28.2919 39.648C20.7246 39.648 13.1573 39.648 5.58998 39.648Z" fill="#FCA311"/>
<path d="M14.358 10.748C12.4107 10.748 10.7101 11.8403 9.83289 13.4429C10.5656 13.0418 11.4037 12.812 12.294 12.812H53.5779C56.4155 12.812 58.7339 15.1325 58.7339 17.97V50.9939H59.7699C60.0422 50.9928 60.303 50.8842 60.4956 50.6917C60.6881 50.4991 60.7968 50.2382 60.7979 49.9659V15.906C60.7979 13.0684 58.4795 10.748 55.6419 10.748H14.358Z" fill="#143441"/>
<path d="M43.5583 25.7622L39.1783 30.1442C38.7741 30.5474 38.7741 31.2023 39.1783 31.6055C39.5818 32.0111 40.2382 32.0111 40.6417 31.6055L45.0135 27.2256C45.4191 26.8221 45.4191 26.1657 45.0135 25.7622C44.4367 25.3189 43.9656 25.4267 43.5583 25.7622ZM47.9402 27.2256L40.6417 34.5241C40.2414 34.9267 40.2414 35.5769 40.6417 35.9794C41.0442 36.3797 41.6944 36.3797 42.0969 35.9794L49.3935 28.6809C49.7937 28.2783 49.7937 27.6281 49.3935 27.2256C48.8147 26.7792 48.3088 26.8846 47.9402 27.2256Z" fill="#87D1EE"/>
<path d="M6.10076 48.9292C4.40311 48.9292 3.0078 50.3321 3.00781 52.0298V53.0582C3.00781 56.4657 5.7938 59.2517 9.20132 59.2517H60.7987C64.2062 59.2517 66.9922 56.4657 66.9922 53.0582V52.0298C66.9922 50.3321 65.5893 48.9292 63.8916 48.9292H6.10076Z" fill="#3A4D5C"/>
<path d="M25.7097 48.9292V52.0298C25.7097 53.7274 27.1127 55.1227 28.8103 55.1227H41.1897C42.8873 55.1227 44.2903 53.7274 44.2903 52.0298V48.9292C38.0967 48.9292 31.9032 48.9292 25.7097 48.9292Z" fill="#87D1EE"/>
<path d="M22.6152 53.0562C22.479 53.0556 22.344 53.0821 22.218 53.134C22.0921 53.1859 21.9777 53.2622 21.8814 53.3585C21.785 53.4548 21.7088 53.5692 21.6569 53.6951C21.605 53.8211 21.5786 53.9561 21.5791 54.0923C21.5796 54.2279 21.6068 54.362 21.6591 54.4871C21.7114 54.6121 21.7879 54.7257 21.8841 54.8212C21.9803 54.9167 22.0944 54.9923 22.2198 55.0437C22.3453 55.0951 22.4796 55.1213 22.6152 55.1208C22.8876 55.1198 23.1487 55.0111 23.3414 54.8184C23.534 54.6258 23.6427 54.3648 23.6436 54.0923C23.6442 53.9568 23.618 53.8224 23.5666 53.6969C23.5152 53.5715 23.4396 53.4573 23.3441 53.3611C23.2485 53.2649 23.135 53.1885 23.01 53.1362C22.8849 53.0838 22.7507 53.0566 22.6152 53.0562Z" fill="#87D1EE"/>
<path d="M47.3831 53.0562C47.2469 53.0556 47.1119 53.0821 46.986 53.134C46.86 53.1859 46.7456 53.2622 46.6493 53.3585C46.553 53.4548 46.4767 53.5692 46.4248 53.6951C46.3729 53.8211 46.3465 53.9561 46.3471 54.0923C46.3475 54.2279 46.3747 54.362 46.427 54.4871C46.4793 54.6121 46.5558 54.7257 46.652 54.8212C46.7482 54.9167 46.8623 54.9923 46.9878 55.0437C47.1132 55.0951 47.2475 55.1213 47.3831 55.1208C47.6556 55.1198 47.9166 55.0111 48.1093 54.8184C48.302 54.6258 48.4106 54.3648 48.4116 54.0923C48.4121 53.9568 48.3859 53.8224 48.3345 53.6969C48.2831 53.5715 48.2075 53.4573 48.112 53.3611C48.0165 53.2649 47.903 53.1885 47.7779 53.1362C47.6528 53.0838 47.5187 53.0566 47.3831 53.0562Z" fill="#87D1EE"/>
<path d="M6.61804 41.7061H28.292C30.0141 41.7061 31.386 43.0839 31.386 44.806V45.834C31.386 47.5561 30.0141 48.934 28.292 48.934H6.61804V41.7061Z" fill="#FAFCBD"/>
<path d="M6.61804 44.8882V48.9335H28.292C30.0141 48.9335 31.386 47.5556 31.386 45.8335V44.8882H6.61804Z" fill="#E8CF76"/>
<path d="M6.61804 44.2876V46.3516H11.8143C12.0866 46.3506 12.3475 46.242 12.54 46.0494C12.7326 45.8569 12.8412 45.596 12.8423 45.3237C12.8428 45.1881 12.8167 45.0538 12.7653 44.9284C12.7139 44.8029 12.6383 44.6889 12.5429 44.5927C12.4474 44.4965 12.3339 44.4201 12.2089 44.3677C12.0839 44.3154 11.9498 44.2881 11.8143 44.2876H6.61804ZM15.8758 44.2876C15.7401 44.2879 15.6058 44.3149 15.4805 44.3671C15.3553 44.4194 15.2416 44.4957 15.1459 44.592C15.0502 44.6882 14.9745 44.8025 14.923 44.928C14.8715 45.0535 14.8453 45.188 14.8458 45.3237C14.8469 45.5963 14.9558 45.8575 15.1488 46.0501C15.3418 46.2427 15.6031 46.3511 15.8758 46.3516H21.58C21.7155 46.3522 21.8498 46.326 21.9752 46.2746C22.1006 46.2232 22.2147 46.1476 22.3109 46.0521C22.4071 45.9567 22.4836 45.8433 22.5359 45.7183C22.5883 45.5933 22.6155 45.4592 22.616 45.3237C22.6166 45.1875 22.5901 45.0525 22.5383 44.9266C22.4864 44.8006 22.4101 44.6861 22.3138 44.5898C22.2175 44.4935 22.103 44.4172 21.9771 44.3653C21.8512 44.3135 21.7162 44.2871 21.58 44.2876H15.8758Z" fill="#CCA359"/>
<path d="M10.2297 36.0293H31.9032C32.4854 36.0293 32.9317 36.4831 32.9317 37.0654V38.6118C32.9317 39.194 32.4854 39.6479 31.9032 39.6479H10.2297C9.64757 39.6479 9.20129 39.194 9.20129 38.6118V37.0654C9.20128 36.4832 9.64754 36.0293 10.2297 36.0293Z" fill="#FAFCBD"/>
<path d="M20.0343 29.3257C19.7618 29.3266 19.5008 29.4354 19.3082 29.628C19.1155 29.8207 19.0068 30.0817 19.0059 30.3541V40.6766C19.006 40.8805 19.0664 41.0797 19.1796 41.2492C19.2928 41.4187 19.4537 41.5509 19.6419 41.6291C19.8301 41.7074 20.0373 41.728 20.2373 41.6887C20.4372 41.6493 20.6211 41.5517 20.7656 41.408L23.1349 39.0388L25.4965 41.408C25.641 41.5517 25.8249 41.6493 26.0249 41.6887C26.2249 41.728 26.432 41.7074 26.6202 41.6291C26.8085 41.5509 26.9693 41.4187 27.0825 41.2492C27.1957 41.0797 27.2561 40.8805 27.2563 40.6766V30.3541C27.2553 30.0817 27.1466 29.8206 26.954 29.6279C26.7613 29.4352 26.5003 29.3266 26.2278 29.3257H20.0343Z" fill="#3A4D5C"/>
<path d="M17.4519 14.876C15.185 14.876 13.3311 16.7373 13.33 19.004H48.4118C50.6795 19.004 52.5419 20.8664 52.5419 23.134V46.866C54.8086 46.8648 56.6699 45.0109 56.6699 42.744V19.006C56.6699 16.7384 54.8074 14.876 52.5398 14.876H17.4519Z" fill="#8ED1F7"/>
<path d="M6.09998 48.9297C4.71488 48.9297 3.53202 49.8628 3.14307 51.1287C22.5757 50.8135 42.2998 50.9937 61.8279 50.9937C63.5255 50.9937 64.9279 52.3962 64.9279 54.0938V55.1218C64.9279 56.2992 64.5949 57.4029 64.0189 58.3427C65.7986 57.2517 66.9919 55.2878 66.9919 53.0577V52.0298C66.9919 50.3321 65.5895 48.9298 63.8919 48.9298L6.09998 48.9297Z" fill="#143441"/>
</svg>
