<svg width="70" height="70" viewBox="0 0 70 70" fill="none" xmlns="http://www.w3.org/2000/svg">
<path d="M47.8089 55.9383C48.0199 55.95 48.222 56.028 48.3878 56.1591L54.3524 60.9048C54.5718 61.0815 54.7094 61.3402 54.7333 61.6209L54.8408 64.8111V65.8495C54.8408 66.4577 54.4237 66.9854 53.8124 66.9845L47.7403 66.9923C47.1702 66.9902 46.7097 66.5264 46.7119 65.9563V56.9675C46.7128 56.3726 47.2152 55.9017 47.8089 55.9391L47.8089 55.9383Z" fill="#FFCCBC"/>
<path d="M54.6948 61.6204C54.6687 61.3386 54.5281 61.08 54.3058 60.9049L48.3501 56.1584C48.1716 56.0185 47.952 55.9413 47.7252 55.9387H47.7254C47.1493 55.9275 46.6755 56.3903 46.6733 56.9666V65.9557C46.6713 66.5264 47.1326 66.9905 47.7033 66.9917H48.7392V64.8129H54.8407L54.8009 62.7482L54.6948 61.6204Z" fill="#FFA185"/>
<path d="M54.1622 42.5998C54.156 42.3783 54.0785 42.1645 53.9413 41.9904L51.755 39.2023C51.6521 39.0709 51.5188 38.9664 51.3665 38.8977L46.6284 36.7648C46.4734 36.6938 46.3033 36.6626 46.1332 36.6735V36.6733C46.0288 36.6811 45.926 36.7045 45.8285 36.742L42.0349 38.2045C41.6371 38.357 41.3738 38.7383 41.3722 39.1644V51.3373V65.9555C41.37 66.5256 41.8305 66.9895 42.4006 66.9915H47.7024C48.2756 66.9938 48.7407 66.5286 48.7385 65.9554V62.7484H54.8009L54.1622 42.5998Z" fill="#3A4D5C"/>
<path d="M46.1332 36.6725C46.0287 36.6803 45.9263 36.7036 45.8288 36.741L45.1194 37.0153L49.3035 38.8978C49.4558 38.9664 49.5876 39.0706 49.6905 39.202L51.8773 41.9893C52.0145 42.1633 52.0928 42.3786 52.099 42.6L52.738 62.749H54.8018L54.1629 42.6C54.1567 42.3785 54.0784 42.1635 53.9412 41.9893L51.7544 39.202C51.6514 39.0706 51.5196 38.9664 51.3674 38.8978L46.629 36.7653C46.474 36.6943 46.3032 36.6615 46.1332 36.6725Z" fill="#143441"/>
<path d="M22.1911 55.9383C21.98 55.95 21.778 56.028 21.6121 56.1591L15.6475 60.9048C15.4282 61.0815 15.2906 61.3402 15.2667 61.6209L15.1592 64.8111V65.8495C15.1592 66.4577 15.5763 66.9854 16.1876 66.9845L22.2596 66.9923C22.8297 66.9902 23.2902 66.5264 23.288 65.9563V56.9675C23.2871 56.3726 22.7848 55.9017 22.1911 55.9391V55.9383Z" fill="#FFCCBC"/>
<path d="M15.1592 64.8112H21.2235V66.992H22.2594C22.8295 66.9898 23.2898 66.526 23.2876 65.9559V56.9668C23.2866 56.3865 22.8075 55.9211 22.2274 55.9369C22.2154 55.9374 22.2032 55.938 22.1911 55.939C21.9804 55.9513 21.7785 56.028 21.6127 56.1587L15.6468 60.9052C15.4275 61.0817 15.2899 61.3402 15.2659 61.6207L15.1592 62.7482V64.8112Z" fill="#FFA185"/>
<path d="M27.5539 66.9909C28.127 66.9931 28.5921 66.528 28.5899 65.9549V51.3367V39.1638C28.5883 38.7377 28.325 38.3564 27.9271 38.204L24.126 36.7414C24.0212 36.7008 23.9106 36.6778 23.7984 36.6727V36.673C23.6385 36.6652 23.4794 36.6965 23.3337 36.7643L18.5956 38.8973C18.4433 38.9659 18.31 39.0704 18.2071 39.2019L16.0208 41.9899C15.8836 42.1639 15.8062 42.3776 15.7999 42.5993L15.1592 62.7479H21.2236V66.9911L27.5539 66.9909Z" fill="#3A4D5C"/>
<path d="M43.4366 66.9911V40.962C43.4346 40.3919 42.9707 39.9314 42.4006 39.9336H27.5539C26.9868 39.9356 26.5275 40.3948 26.5255 40.962V66.9911H43.4366Z" fill="#D0E2EE"/>
<path d="M29.6792 27.8672C29.4324 27.867 29.1938 27.9554 29.0065 28.1161C28.8192 28.2768 28.6957 28.4993 28.6584 28.7432L27.5996 35.759C27.5733 35.934 27.5924 36.1127 27.6551 36.2781C27.7178 36.4435 27.822 36.5901 27.9576 36.7036L32.2006 40.2382C32.384 40.3932 32.6157 40.4794 32.8557 40.482H37.0988C37.3415 40.4812 37.5761 40.3949 37.7615 40.2382L42.0045 36.7036C42.1401 36.5901 42.2443 36.4435 42.307 36.2781C42.3697 36.1127 42.3888 35.934 42.3626 35.759L41.3037 28.7432C41.2664 28.4993 41.1429 28.2768 40.9557 28.1161C40.7684 27.9554 40.5297 27.867 40.283 27.8672H29.6792Z" fill="#FFA185"/>
<path d="M25.4362 17.4233C25.1638 17.4243 24.9027 17.533 24.7101 17.7257C24.5174 17.9183 24.4088 18.1793 24.4078 18.4517V24.5991C24.4055 24.6576 24.4081 24.7162 24.4156 24.7742C24.4156 24.7742 24.7375 26.6474 26.2362 28.4459C27.7349 30.2443 30.4819 31.9957 34.9813 31.9957C39.4806 31.9957 42.2276 30.2443 43.7263 28.4459C45.225 26.6474 45.5393 24.7742 45.5393 24.7742C45.5493 24.7164 45.5544 24.6578 45.5545 24.5991V18.4517C45.5535 18.1793 45.4449 17.9183 45.2523 17.7257C45.0596 17.533 44.7986 17.4243 44.5261 17.4233H25.4362Z" fill="#FFCCBC"/>
<path d="M43.4909 17.4229V22.5362C43.4906 22.595 43.4853 22.6538 43.4749 22.7117C43.4749 22.7117 43.1617 24.5834 41.663 26.3819C40.1643 28.1803 37.4171 29.9332 32.9177 29.9332C29.7201 29.9332 27.4215 29.0429 25.8131 27.8855C25.9446 28.072 26.0804 28.2587 26.2364 28.4458C27.7351 30.2442 30.4823 31.997 34.9816 31.997C39.4809 31.997 42.2281 30.2442 43.7268 28.4458C45.2255 26.6473 45.5388 24.7756 45.5388 24.7756C45.5491 24.7177 45.5545 24.6589 45.5548 24.6001V18.4528C45.5542 18.1801 45.4458 17.9189 45.2532 17.7259C45.0606 17.5329 44.7995 17.4239 44.5269 17.4229H43.4909Z" fill="#FFA185"/>
<path d="M32.8557 44.7783C32.5959 44.7785 32.3457 44.8766 32.1551 45.0531C31.9645 45.2297 31.8474 45.4715 31.8273 45.7305L30.7685 59.5184C30.757 59.6665 30.7776 59.8152 30.8288 59.9545C30.8801 60.0939 30.9609 60.2206 31.0656 60.3259L34.2497 63.5024C34.3456 63.5987 34.4596 63.6751 34.585 63.7273C34.7105 63.7794 34.8451 63.8063 34.981 63.8063C35.1169 63.8063 35.2515 63.7794 35.377 63.7273C35.5024 63.6751 35.6164 63.5987 35.7123 63.5024L38.8889 60.3259C38.9949 60.2213 39.0771 60.0949 39.1297 59.9555C39.1823 59.8161 39.2041 59.667 39.1936 59.5184L38.1271 45.7305C38.107 45.4715 37.99 45.2297 37.7993 45.0531C37.6087 44.8766 37.3585 44.7785 37.0987 44.7783H32.8557Z" fill="#DC1C4B"/>
<path d="M26.5407 33.1157C26.3989 33.1097 26.2574 33.133 26.125 33.1841C25.9926 33.2353 25.8722 33.3131 25.7713 33.4129L22.5871 36.597C22.4864 36.6978 22.4075 36.8184 22.3556 36.9511C22.3037 37.0839 22.2799 37.2259 22.2856 37.3683C22.2914 37.5107 22.3265 37.6505 22.3889 37.7786C22.4513 37.9068 22.5396 38.0206 22.6481 38.113L30.0677 44.4737C30.1866 44.5753 30.327 44.6485 30.4784 44.6879C30.6298 44.7273 30.7881 44.7318 30.9415 44.701C31.0949 44.6702 31.2392 44.6049 31.3636 44.5101C31.4881 44.4153 31.5893 44.2935 31.6598 44.1538L33.7851 39.9108C33.8893 39.702 33.9196 39.4641 33.8712 39.2358C33.8228 39.0076 33.6985 38.8024 33.5185 38.6539L27.1577 33.3521C26.9835 33.2078 26.7667 33.1247 26.5407 33.1157H26.5407Z" fill="#91A9D9"/>
<path d="M43.4289 33.1159C43.2003 33.1233 42.9806 33.2064 42.8043 33.3523L36.4436 38.6541C36.2636 38.8026 36.1392 39.0076 36.0908 39.2359C36.0424 39.4642 36.0728 39.7022 36.177 39.911L38.2947 44.154C38.3649 44.295 38.4664 44.418 38.5914 44.5136C38.7165 44.6093 38.8618 44.6751 39.0161 44.706C39.1705 44.7368 39.3299 44.7319 39.4822 44.6917C39.6344 44.6515 39.7754 44.577 39.8944 44.4739L47.3139 38.1132C47.4225 38.0208 47.5108 37.907 47.5731 37.7788C47.6355 37.6507 47.6707 37.511 47.6764 37.3685C47.6821 37.2261 47.6583 37.0841 47.6064 36.9514C47.5545 36.8186 47.4757 36.698 47.3749 36.5973L44.1907 33.4131C44.0907 33.3143 43.9715 33.2369 43.8405 33.1857C43.7095 33.1346 43.5695 33.1109 43.429 33.1159H43.4289Z" fill="#91A9D9"/>
<path d="M24.4078 19.2517L34.7526 21.3694C34.9005 21.4006 35.054 21.4006 35.202 21.3694L45.5545 19.2517L45.5544 18.2385V13.2642C45.5523 12.6971 45.0931 12.2378 44.526 12.2358H25.4362C24.8691 12.2378 24.4098 12.6971 24.4078 13.2642V18.2385V19.2517Z" fill="#5F8EA2"/>
<path d="M25.4361 12.2368C25.1638 12.2379 24.903 12.3465 24.7105 12.5391C24.5179 12.7316 24.4093 12.9924 24.4082 13.2647V16.0723L34.6449 19.5793C34.8624 19.654 35.0986 19.654 35.3161 19.5793L45.5548 16.0723V13.2647C45.5537 12.9924 45.4451 12.7316 45.2525 12.5391C45.06 12.3466 44.7992 12.2379 44.5269 12.2368H25.4361Z" fill="#3A4D5C"/>
<path d="M43.4284 33.1151C43.1998 33.1223 42.98 33.2054 42.8036 33.3511L36.4427 38.654C36.2627 38.8026 36.1383 39.0078 36.09 39.2362C36.0416 39.4647 36.0722 39.7028 36.1767 39.9116L38.295 44.1542C38.3651 44.2953 38.4665 44.4185 38.5916 44.5143C38.7167 44.6101 38.862 44.676 39.0165 44.707C39.171 44.7379 39.3305 44.7331 39.4828 44.6928C39.6351 44.6526 39.7762 44.578 39.8953 44.4748L40.3326 44.1L38.2405 39.9118C38.1361 39.703 38.1055 39.4649 38.1538 39.2365C38.2022 39.008 38.3265 38.8027 38.5066 38.6541L44.4644 33.688L44.1903 33.4138C44.0904 33.3147 43.9712 33.2371 43.8402 33.1858C43.7092 33.1345 43.569 33.1105 43.4284 33.1154L43.4284 33.1151Z" fill="#3A4D5C"/>
<path d="M26.5329 33.1151C26.7616 33.1223 26.9814 33.2054 27.1577 33.3511L33.5186 38.654C33.6987 38.8026 33.823 39.0078 33.8714 39.2362C33.9197 39.4647 33.8891 39.7028 33.7847 39.9116L31.6664 44.1542C31.5963 44.2953 31.4948 44.4185 31.3697 44.5143C31.2446 44.6101 31.0993 44.676 30.9448 44.707C30.7903 44.7379 30.6308 44.7331 30.4785 44.6928C30.3262 44.6526 30.1851 44.578 30.0661 44.4748L29.6287 44.1L31.7208 39.9118C31.8252 39.703 31.8558 39.4649 31.8075 39.2365C31.7592 39.008 31.6348 38.8027 31.4548 38.6541L25.4969 33.688L25.7711 33.4138C25.871 33.3147 25.9901 33.2371 26.1211 33.1858C26.2522 33.1345 26.3923 33.1105 26.5329 33.1154V33.1151Z" fill="#3A4D5C"/>
<path d="M32.8557 38.4175C32.6642 38.4178 32.4766 38.4714 32.3138 38.5723C32.151 38.6732 32.0195 38.8174 31.934 38.9888L29.8163 43.2242C29.718 43.4182 29.6835 43.6382 29.7177 43.853C29.7519 44.0678 29.8531 44.2663 30.0068 44.4202L32.1321 46.5379C32.3237 46.7308 32.5838 46.8402 32.8557 46.8425H34.9811H37.0988C37.2347 46.8423 37.3693 46.8155 37.4948 46.7632C37.6203 46.7109 37.7342 46.6343 37.8301 46.5379L39.9478 44.4202C40.1027 44.2672 40.2053 44.0691 40.2409 43.8543C40.2765 43.6395 40.2432 43.419 40.1458 43.2242L38.0205 38.9888C37.935 38.8174 37.8035 38.6732 37.6407 38.5723C37.4779 38.4714 37.2903 38.4178 37.0988 38.4175H32.8557Z" fill="#B01D47"/>
<path d="M22.2596 50.0801C21.6895 50.0778 21.2256 50.5383 21.2236 51.1085V66.9911L23.288 66.991V51.1085C23.2861 50.5413 22.8268 50.082 22.2596 50.0801Z" fill="#143441"/>
<path d="M48.7384 66.9913V51.1085C48.7365 50.5383 48.2726 50.0778 47.7025 50.0801C47.1353 50.082 46.676 50.5413 46.6741 51.1085V66.9913H48.7384Z" fill="#143441"/>
<path d="M52.1948 39.7627L47.5883 44.2984C47.45 44.4388 47.3548 44.6159 47.314 44.8088L46.7427 47.5359C46.6277 48.0932 46.9855 48.6385 47.5426 48.7547C48.0999 48.8698 48.6451 48.5117 48.7614 47.9549L49.2718 45.5248L53.3982 41.2974L52.1948 39.7627Z" fill="#143441"/>
<path d="M17.7672 39.7627L22.3737 44.2984C22.512 44.4388 22.6072 44.6159 22.648 44.8088L23.2193 47.5359C23.3343 48.0932 22.9765 48.6385 22.4194 48.7547C21.8621 48.8698 21.3169 48.5117 21.2006 47.9549L20.6902 45.5248L16.5638 41.2974L17.7672 39.7627Z" fill="#143441"/>
<path d="M34.9049 3.01096C34.7867 3.01902 34.6707 3.04732 34.5621 3.09475L18.6565 10.1487C18.4669 10.2328 18.3071 10.3722 18.1978 10.5485C18.0885 10.7248 18.0349 10.9298 18.044 11.1371C18.053 11.3443 18.1243 11.544 18.2485 11.7102C18.3727 11.8763 18.5441 12.001 18.7403 12.0683L34.6459 17.5149C34.8632 17.5895 35.0991 17.5895 35.3163 17.5149L51.2219 12.0683C51.4181 12.001 51.5895 11.8763 51.7137 11.7102C51.8379 11.544 51.9092 11.3443 51.9182 11.1371C51.9273 10.9298 51.8737 10.7248 51.7644 10.5485C51.6551 10.3722 51.4952 10.2328 51.3056 10.1487L35.4 3.09475C35.2444 3.02645 35.0743 2.99771 34.9049 3.01096H34.9049Z" fill="#5F8EA2"/>
<path d="M34.9887 8.72424C34.8416 8.72391 34.6962 8.75506 34.5621 8.81553L19.7154 15.3972C19.5345 15.4783 19.3809 15.6099 19.2728 15.776C19.1648 15.9422 19.1068 16.1359 19.106 16.3341V18.7032C19.1069 18.9757 19.2155 19.2367 19.4082 19.4294C19.6008 19.622 19.8619 19.7306 20.1343 19.7316C20.2699 19.7321 20.4042 19.706 20.5297 19.6546C20.6551 19.6032 20.7692 19.5275 20.8654 19.432C20.9616 19.3365 21.0381 19.2231 21.0904 19.098C21.1427 18.973 21.1699 18.8388 21.1703 18.7032V17.0045L35.4 10.7047C35.5242 10.6498 35.6363 10.571 35.73 10.4727C35.8236 10.3744 35.897 10.2586 35.9458 10.132C35.9946 10.0053 36.018 9.87023 36.0145 9.73453C36.0111 9.59882 35.9809 9.46517 35.9257 9.34115C35.8456 9.15889 35.7146 9.00369 35.5484 8.89421C35.3821 8.78473 35.1877 8.72564 34.9887 8.72412V8.72424Z" fill="#3A4D5C"/>
<path d="M18.3974 19.9678C18.1377 19.9679 17.8875 20.0661 17.6968 20.2426C17.5062 20.4191 17.3892 20.661 17.3691 20.92L16.8587 27.4787C16.7591 28.7562 17.7941 29.8783 19.0754 29.8783H21.1931C22.4744 29.8783 23.5094 28.7562 23.4098 27.4787L22.8995 20.92C22.8794 20.661 22.7623 20.4191 22.5717 20.2426C22.3811 20.0661 22.1309 19.9679 21.8711 19.9678H18.3974Z" fill="#FED883"/>
<path d="M18.398 19.9683C18.1384 19.9685 17.8885 20.0666 17.698 20.2429C17.5075 20.4192 17.3904 20.6608 17.3701 20.9196L17.1343 23.9327C17.9428 24.6434 18.9861 25.0917 20.1333 25.0917C21.2805 25.0917 22.3259 24.6434 23.1344 23.9327L22.8986 20.9196C22.8783 20.6608 22.7612 20.4192 22.5707 20.2429C22.3802 20.0666 22.1303 19.9685 21.8707 19.9683H18.398Z" fill="#FCA311"/>
<path d="M20.1343 17.667C18.5788 17.667 17.293 18.9528 17.293 20.5084C17.293 22.0639 18.5788 23.3497 20.1343 23.3497C21.6899 23.3497 22.9757 22.0639 22.9757 20.5084C22.9757 18.9528 21.6899 17.667 20.1343 17.667Z" fill="#3A4D5C"/>
<path d="M32.8551 44.7788C32.5955 44.7791 32.3456 44.8772 32.1551 45.0535C31.9646 45.2298 31.8475 45.4714 31.8272 45.7302L31.7426 46.8427H35.0359C35.2954 46.843 35.5454 46.941 35.7359 47.1173C35.9264 47.2936 36.0435 47.5353 36.0638 47.7941L37.13 61.5821C37.1406 61.7308 37.1189 61.88 37.0664 62.0195C37.0139 62.159 36.9317 62.2855 36.8257 62.3903L38.8895 60.3264C38.9956 60.2216 39.0777 60.0951 39.1303 59.9556C39.1828 59.8161 39.2045 59.6669 39.1938 59.5182L38.1276 45.7302C38.1073 45.4714 37.9903 45.2298 37.7998 45.0535C37.6093 44.8772 37.3593 44.7791 37.0997 44.7788H32.8551Z" fill="#B01D47"/>
</svg>
