<?xml version="1.0" encoding="utf-8"?>
<!-- Generator: Adobe Illustrator 22.0.1, SVG Export Plug-In . SVG Version: 6.00 Build 0)  -->
<svg version="1.1" id="Layer_1" xmlns="http://www.w3.org/2000/svg" xmlns:xlink="http://www.w3.org/1999/xlink" x="0px" y="0px"
	 viewBox="0 0 330 132" style="enable-background:new 0 0 330 132;" xml:space="preserve">
<style type="text/css">
	.st0{fill:#DC8F20;}
	.st1{fill:#FFFFFF;}
</style>
<g>
	<g>
		<path class="st0" d="M80.1,1.6H59.9L5.5,81.9v21.2h51.3v25.4h23.3v-25.4h15.6V81.8H80.1V1.6z M56.8,81.8H28l28.8-43.2V81.8z
			 M165.2,1.6c-12.1,0-21.6,4.3-28.4,12.9c-8.2,10.5-12.3,27.6-12.3,51.4c0,24.2,3.7,41.1,11.2,50.5c7.5,9.5,17.3,14.2,29.5,14.2
			c12.1,0,21.6-4.3,28.4-12.9c8.2-10.5,12.3-27.6,12.3-51.5c0-24-4.1-41.1-12.2-51.5C186.9,6,177.4,1.6,165.2,1.6z M178.3,97.7
			c-1.3,4.8-3,8.2-5.3,10c-2.3,1.9-4.9,2.8-7.8,2.8c-2.9,0-5.5-0.9-7.7-2.8c-2.3-1.8-4.1-5.5-5.6-11.1c-1.5-5.5-2.2-15.7-2.2-30.6
			c0-14.8,0.8-25.4,2.5-31.6c1.3-4.8,3-8.2,5.3-10c2.3-1.9,4.9-2.8,7.8-2.8c2.9,0,5.5,0.9,7.7,2.8c2.3,1.9,4.1,5.6,5.6,11.1
			c1.5,5.5,2.2,15.7,2.2,30.6C180.8,81,180,91.5,178.3,97.7z M309.9,81.8V1.6h-20.2l-54.4,80.2v21.2h51.3v25.4h23.3v-25.4h15.6V81.8
			H309.9z M286.7,81.8h-28.8l28.8-43.2V81.8z"/>
	</g>
</g>
<g>
	<g>
		<path class="st1" d="M176.4,43.2c-22.3,0-40.3,18-40.3,40.3h80.6C216.8,61.2,198.7,43.2,176.4,43.2z M236.9,63.3
			c-11.1,0-20.2,9-20.2,20.1h40.3C257.1,72.3,248,63.3,236.9,63.3z"/>
	</g>
</g>
<path class="st0" d="M202.8,35l-24.2-2.8c0.1,0.3,0.1,3.5,0.1,3.8c1.5,5.5,2.1,15.6,2.1,30.4c0,14.8-0.8,25.3-2.5,31.5
	c-0.6,2.4-1.4,4.4-2.3,6.1l24.7,0.1c3.4-9.8,5.2-22.5,5.2-37.8C206,54.1,204.9,43.7,202.8,35z"/>
</svg>
